<?xml version="1.0" encoding="iso-8859-1"?>
<!-- Generator: Adobe Illustrator 18.1.1, SVG Export Plug-In . SVG Version: 6.00 Build 0)  -->
<svg version="1.1" id="Layer_1" xmlns="http://www.w3.org/2000/svg" xmlns:xlink="http://www.w3.org/1999/xlink" x="0px" y="0px"
	 viewBox="0 0 25 25" style="enable-background:new 0 0 25 25;" xml:space="preserve">
<g>
	<path style="fill:none;stroke:#121E24;stroke-width:0.7;stroke-linecap:round;stroke-linejoin:round;stroke-miterlimit:10;" d="
		M17.3,0.557l0.01-0.012c-0.003,0.001-0.007,0.001-0.01,0.002c0-0.003,0-0.007,0-0.01l-0.01,0.012
		c-5.015,0.743-4.709,5.551-4.709,5.551l0.135-0.159l-0.135,0.159C12.582,6.099,17.376,5.626,17.3,0.557z"/>
	<path style="fill:none;stroke:#121E24;stroke-width:0.7;stroke-linecap:round;stroke-linejoin:round;stroke-miterlimit:10;" d="
		M18.95,13.249c0-1.897,1.017-3.553,2.532-4.466C20.66,7.71,19.282,6.554,17.09,6.378c0,0-1.347-0.113-2.482,0.499
		c0,0-1.356,0.584-1.702,0.567c-0.346,0.017-1.702-0.567-1.702-0.567C10.07,6.265,8.723,6.378,8.723,6.378
		c-4.231,0.34-5.437,4.331-5.437,4.331c-1.986,7.12,3.782,12.71,3.782,12.71c1.158,1.338,2.695,1.009,2.695,1.009
		c2.198-1.088,3.144-0.998,3.144-0.998s0.945-0.091,3.144,0.998c0,0,1.536,0.329,2.695-1.009c0,0,2.165-2.102,3.385-5.367
		C20.261,17.259,18.95,15.407,18.95,13.249z"/>
</g>
</svg>
