<?xml version="1.0" encoding="iso-8859-1"?>
<!-- Generator: Adobe Illustrator 18.1.1, SVG Export Plug-In . SVG Version: 6.00 Build 0)  -->
<svg version="1.1" id="Layer_1" xmlns="http://www.w3.org/2000/svg" xmlns:xlink="http://www.w3.org/1999/xlink" x="0px" y="0px"
	 viewBox="0 0 25 25" style="enable-background:new 0 0 25 25;" xml:space="preserve">
<g>
	<g>
		<path style="fill:none;stroke:#121E24;stroke-width:0.7;stroke-linecap:round;stroke-linejoin:round;stroke-miterlimit:10;" d="
			M14.967,9.002l0.005-0.006c-0.002,0-0.003,0.001-0.005,0.001c0-0.002,0-0.003,0-0.005l-0.005,0.006
			c-2.577,0.382-2.42,2.853-2.42,2.853l0.069-0.082l-0.069,0.082C12.542,11.851,15.006,11.607,14.967,9.002z"/>
		<path style="fill:none;stroke:#121E24;stroke-width:0.7;stroke-linecap:round;stroke-linejoin:round;stroke-miterlimit:10;" d="
			M15.814,15.624c0-0.975,0.522-1.826,1.301-2.295c-0.422-0.552-1.13-1.145-2.257-1.236c0,0-0.692-0.058-1.275,0.256
			c0,0-0.697,0.3-0.875,0.291c-0.178,0.009-0.875-0.291-0.875-0.291c-0.583-0.315-1.275-0.256-1.275-0.256
			c-2.174,0.175-2.794,2.226-2.794,2.226c-1.02,3.659,1.944,6.531,1.944,6.531c0.595,0.688,1.385,0.519,1.385,0.519
			c1.13-0.559,1.615-0.513,1.615-0.513s0.486-0.047,1.615,0.513c0,0,0.79,0.169,1.385-0.519c0,0,1.113-1.08,1.74-2.758
			C16.488,17.685,15.814,16.734,15.814,15.624z"/>
	</g>
	<g>
		<path style="fill:none;stroke:#121E24;stroke-width:0.7;stroke-linecap:round;stroke-linejoin:round;stroke-miterlimit:10;" d="
			M6.945,6.438"/>
		<path style="fill:none;stroke:#121E24;stroke-width:0.7;stroke-linecap:round;stroke-linejoin:round;stroke-miterlimit:10;" d="
			M18.055,6.438"/>
		<path style="fill:none;stroke:#121E24;stroke-width:0.7;stroke-linecap:round;stroke-linejoin:round;stroke-miterlimit:10;" d="
			M18.056,6.17c0-3.068-2.487-5.302-5.556-5.302c-3.068,0-5.556,2.234-5.556,5.302"/>
	</g>
	<g>
		<path style="fill:none;stroke:#121E24;stroke-width:0.7;stroke-linecap:round;stroke-linejoin:round;stroke-miterlimit:10;" d="
			M8.285,6.17"/>
		<path style="fill:none;stroke:#121E24;stroke-width:0.7;stroke-linecap:round;stroke-linejoin:round;stroke-miterlimit:10;" d="
			M16.715,6.17"/>
		<path style="fill:none;stroke:#121E24;stroke-width:0.7;stroke-linecap:round;stroke-linejoin:round;stroke-miterlimit:10;" d="
			M16.715,6.17c0-2.328-1.887-4.215-4.215-4.215S8.285,3.843,8.285,6.17"/>
	</g>
	<path style="fill:none;stroke:#121E24;stroke-width:0.7;stroke-linecap:round;stroke-linejoin:round;stroke-miterlimit:10;" d="
		M18.341,24.132H6.659c-1.66,0-3.006-1.346-3.006-3.006V9.444c0-1.66,1.346-3.006,3.006-3.006h11.681
		c1.66,0,3.006,1.346,3.006,3.006v11.681C21.347,22.786,20.001,24.132,18.341,24.132z"/>
</g>
</svg>
