<?xml version="1.0" encoding="iso-8859-1"?>
<!-- Generator: Adobe Illustrator 18.1.1, SVG Export Plug-In . SVG Version: 6.00 Build 0)  -->
<svg version="1.1" id="Layer_1" xmlns="http://www.w3.org/2000/svg" xmlns:xlink="http://www.w3.org/1999/xlink" x="0px" y="0px"
	 viewBox="0 0 25 25" style="enable-background:new 0 0 25 25;" xml:space="preserve">
<g>
	
		<circle style="fill:#FFFFFF;stroke:#121E24;stroke-width:0.7;stroke-linecap:round;stroke-linejoin:round;stroke-miterlimit:10;" cx="12.803" cy="12.5" r="8.25"/>
	<path style="fill:#FFFFFF;stroke:#121E24;stroke-width:0.7;stroke-linecap:round;stroke-linejoin:round;stroke-miterlimit:10;" d="
		M15.777,4.803c0,0-2.966-1.256-6.347,0.223c0,0,1.187,0.608,0.016,0.883c0,0-3.351,0.44-4.227,3.342c0,0-0.142,1.058,0.775,2.413
		c0,0,0.53,0.589-0.096,3.135c0,0-0.408,2.464,2.409,2.464c0,0-2.336-3.041,2.122-6.584c0,0,4.951-3.476,0.065-4.379
		c0,0-0.024-0.617,1.386-0.959c0,0,0.862-0.123,0.602,0.219c0,0-0.534,0.383-0.082,0.616c0,0,0.51,0.236,0.917-0.719
		c0,0,0.036-0.092,0.745,0.018c0,0,0.302,0.169,0.528-0.163c0,0,0.19-0.155,0.436-0.046C15.026,5.266,15.506,5.2,15.777,4.803z"/>
	<path style="fill:none;stroke:#121E24;stroke-width:0.7;stroke-linecap:round;stroke-linejoin:round;stroke-miterlimit:10;" d="
		M4.582,13.185c0,0-4.092,0.155-4.092-3.646c0,0-0.106-4.743,5.398-3.492c0,0,3.867,0.462,7.367,7.138c0,0,3.413,7.949,9.935,4.708
		c0,0,1.919-1.073,1.129-3.396c0,0-0.408-1.938-3.266-1.854"/>
	<path style="fill:none;stroke:#121E24;stroke-width:0.7;stroke-linecap:round;stroke-linejoin:round;stroke-miterlimit:10;" d="
		M19.844,8.199c-0.297-0.454-0.461-0.675-0.715-0.994C18.952,7,18.813,6.853,18.581,6.612c0,0-0.458-0.067-0.866,0.014
		c0,0-0.746,0.105-0.559,1.445c0,0,0.093,0.851,0.781,0.897c0,0,0.332,0.141,0.589-0.371c0,0,0.378-0.235,0.308,0.278
		c0,0-0.093,0.792,0.384,0.851c0,0,1.067,0.326,1.107-0.618C20.326,9.108,19.928,8.337,19.844,8.199z"/>
	<path style="fill:none;stroke:#121E24;stroke-width:0.7;stroke-linecap:round;stroke-linejoin:round;stroke-miterlimit:10;" d="
		M21.053,12.5c0-0.603-0.191-1.215-0.309-1.783c-0.217,0.043-0.838,1.013-1.658,0c0,0-1.895-1.913-3.388-0.627
		c0,0-1.318,1.569,0.305,3.519c0,0,1.514,1.656-0.882,3.747c0,0-1.427,0.937,0.403,2.07c0,0,0.372,0.275,0.992,0.444
		C19.295,18.516,21.053,15.657,21.053,12.5z"/>
</g>
</svg>
