<?xml version="1.0" encoding="iso-8859-1"?>
<!-- Generator: Adobe Illustrator 18.1.1, SVG Export Plug-In . SVG Version: 6.00 Build 0)  -->
<svg version="1.1" id="Layer_1" xmlns="http://www.w3.org/2000/svg" xmlns:xlink="http://www.w3.org/1999/xlink" x="0px" y="0px"
	 viewBox="0 0 25 25" style="enable-background:new 0 0 25 25;" xml:space="preserve">
<line style="fill:none;stroke:#121E24;stroke-width:0.7;stroke-linecap:round;stroke-linejoin:round;stroke-miterlimit:10;" x1="13.106" y1="6.393" x2="11.894" y2="6.393"/>
<line style="fill:none;stroke:#121E24;stroke-width:0.7;stroke-linecap:round;stroke-linejoin:round;stroke-miterlimit:10;" x1="10.494" y1="4.039" x2="9.283" y2="4.039"/>
<line style="fill:none;stroke:#121E24;stroke-width:0.7;stroke-linecap:round;stroke-linejoin:round;stroke-miterlimit:10;" x1="15.717" y1="4.039" x2="14.506" y2="4.039"/>
<path style="fill:#121E24;" d="M21.341,6.45c0.078-0.371,0.196-1.275-0.313-1.961c-0.37-0.499-0.975-0.766-1.813-0.796
	c-0.505-0.554-2.696-2.761-5.72-3.158c-0.006-0.001-0.009-0.007-0.015-0.007c0,0-0.082-0.01-0.191-0.02
	c-0.05-0.005-0.1-0.009-0.151-0.014c-0.164-0.014-0.363-0.027-0.555-0.027l-0.038,0h-0.083c-0.022,0-0.044,0-0.046,0
	c-0.192,0-0.39,0.013-0.555,0.027c-0.051,0.004-0.101,0.008-0.151,0.014c-0.109,0.011-0.191,0.02-0.191,0.02
	c-0.006,0.001-0.009,0.006-0.015,0.007c-3.023,0.397-5.214,2.603-5.72,3.158C4.954,3.72,4.345,3.988,3.972,4.489
	C3.463,5.175,3.581,6.079,3.66,6.45c-3.254,4.846-4.388,8.532-3.369,10.958c0.644,1.535,1.955,2.06,2.474,2.211
	c1.003,3.296,2.885,3.995,4.3,3.995c0.974,0,1.839-0.326,2.345-0.566c0.262,0.952,1.238,1.505,2.722,1.505
	c0.198,0,0.34-0.012,0.349-0.016c0.047,0.004,0.189,0.016,0.387,0.016c1.484,0,2.461-0.553,2.722-1.505
	c0.507,0.24,1.372,0.566,2.346,0.566c1.415,0,3.296-0.699,4.3-3.995c0.519-0.151,1.83-0.676,2.474-2.211
	C25.728,14.982,24.595,11.296,21.341,6.45z M20.464,4.904c0.156,0.209,0.22,0.463,0.239,0.702c-0.228-0.409-0.48-0.763-0.71-1.05
	C20.189,4.641,20.351,4.753,20.464,4.904z M14.857,1.605c0.08,0.046,1.948,1.157,1.049,3.551c-0.009,0.04-0.252,0.969-1.91,1.139
	c-0.165,0.017-0.296,0.149-0.313,0.314c-0.012,0.123-0.149,1.195-1.186,1.195c-1.032,0-1.169-1.072-1.181-1.194
	c-0.017-0.166-0.147-0.298-0.313-0.315C9.345,6.125,9.103,5.195,9.08,5.109c-0.886-2.347,0.982-3.458,1.063-3.504
	c0.014-0.008,0.022-0.021,0.034-0.03c0.323-0.114,0.657-0.212,1.007-0.281c-0.156,2.207,0.044,3.645,0.604,4.257
	c0.26,0.284,0.53,0.326,0.667,0.326c0.01,0,0.027-0.001,0.045-0.002c0.019,0.001,0.035,0.002,0.045,0.002
	c0.138,0,0.408-0.042,0.667-0.326c0.56-0.612,0.759-2.049,0.604-4.256c0.35,0.069,0.685,0.168,1.009,0.283
	C14.837,1.586,14.845,1.598,14.857,1.605z M12.254,1.177c0.074-0.002,0.145-0.005,0.238-0.009h0c0.004,0,0.026,0,0.047,0h0.029
	c0.184,0,0.363,0.013,0.542,0.029c0.219,2.838-0.212,3.656-0.412,3.878c-0.075,0.083-0.13,0.098-0.148,0.101
	c-0.033-0.006-0.055-0.007-0.097,0.001c-0.002,0-0.064-0.002-0.154-0.102c-0.201-0.222-0.631-1.04-0.412-3.878
	C12.009,1.186,12.131,1.181,12.254,1.177z M4.534,4.906c0.113-0.152,0.274-0.264,0.471-0.349c-0.229,0.286-0.48,0.639-0.707,1.046
	C4.318,5.365,4.381,5.113,4.534,4.906z M9.703,22.142c-0.044-0.097-0.071-0.39,0.08-0.787c0.169-0.444,0.417-0.643,0.448-0.668
	c0.051,0.057,0.104,0.37-0.064,0.813C10.015,21.898,9.8,22.099,9.703,22.142z M15.308,22.146c-0.092-0.033-0.317-0.234-0.474-0.646
	c-0.169-0.444-0.115-0.759-0.109-0.797c0.075,0.008,0.324,0.206,0.493,0.649C15.378,21.774,15.338,22.078,15.308,22.146z
	 M21.665,18.948c-0.146,0-0.428-0.139-0.685-0.404c-0.33-0.342-0.405-0.651-0.391-0.692c0.146,0,0.428,0.14,0.686,0.405
	c0.33,0.342,0.404,0.65,0.414,0.689C21.689,18.946,21.683,18.948,21.665,18.948z M24.068,17.126
	c-0.433,1.043-1.233,1.512-1.734,1.716c-0.033-0.335-0.212-0.716-0.557-1.071c-0.575-0.595-1.319-0.783-1.679-0.432
	c-0.377,0.364-0.218,1.076,0.379,1.691c0.318,0.328,0.682,0.534,1.012,0.592c-0.715,2.175-1.906,3.291-3.554,3.291
	c-0.826,0-1.578-0.281-2.022-0.49c0.152-0.327,0.157-0.797-0.042-1.32c-0.296-0.777-0.893-1.238-1.373-1.06
	c-0.489,0.188-0.624,0.904-0.319,1.705c0.173,0.453,0.446,0.791,0.74,0.966c-0.211,1.224-2.083,1.127-2.456,1.123
	c-0.008,0.001-0.137,0.014-0.333,0.014c-0.727,0-1.898-0.163-2.06-1.131c0.297-0.173,0.575-0.515,0.749-0.973
	c0.304-0.8,0.17-1.517-0.321-1.704c-0.47-0.178-1.075,0.282-1.372,1.061c-0.198,0.522-0.193,0.992-0.041,1.319
	c-0.443,0.208-1.193,0.489-2.023,0.489c-1.649,0-2.839-1.116-3.554-3.291c0.329-0.058,0.695-0.265,1.013-0.592
	c0.246-0.254,0.431-0.547,0.52-0.822c0.115-0.355,0.063-0.672-0.141-0.869c-0.365-0.354-1.105-0.162-1.68,0.432
	c-0.345,0.355-0.523,0.736-0.556,1.071c-0.501-0.203-1.301-0.673-1.735-1.716c-0.593-1.428-0.564-4.189,2.691-9.336
	C3.61,8.015,3.61,8.243,3.64,8.476c0.022,0.177,0.173,0.306,0.347,0.306c0.015,0,0.03-0.001,0.045-0.003
	c0.191-0.024,0.327-0.2,0.303-0.392c-0.271-2.124,1.829-4.068,1.85-4.088C6.19,4.294,6.188,4.286,6.193,4.281
	c0.006-0.006,0.014-0.008,0.019-0.014c0.015-0.018,0.89-1.031,2.3-1.895C8.135,3.077,7.936,4.054,8.409,5.304
	c0.012,0.057,0.304,1.347,2.257,1.653c0.153,0.651,0.661,1.547,1.835,1.547c1.171,0,1.679-0.896,1.832-1.547
	c1.953-0.306,2.244-1.593,2.241-1.601c0.483-1.281,0.282-2.274-0.097-2.987c1.415,0.864,2.295,1.881,2.31,1.898
	c0.005,0.006,0.013,0.008,0.018,0.013c0.005,0.005,0.003,0.014,0.009,0.019c0.021,0.02,2.122,1.957,1.85,4.088
	c-0.024,0.192,0.111,0.367,0.304,0.392c0.015,0.002,0.029,0.003,0.044,0.003c0.174,0,0.324-0.129,0.348-0.306
	c0.03-0.233,0.03-0.461,0.018-0.686C24.633,12.937,24.662,15.698,24.068,17.126z M3.34,18.948c-0.001-0.107,0.089-0.387,0.384-0.69
	c0.258-0.267,0.541-0.406,0.676-0.437c0.024,0.072-0.051,0.381-0.381,0.723C3.766,18.806,3.488,18.944,3.34,18.948z"/>
<line style="fill:none;stroke:#121E24;stroke-width:0.7;stroke-linecap:round;stroke-linejoin:round;stroke-miterlimit:10;" x1="12.5" y1="10.081" x2="12.5" y2="11.754"/>
<line style="fill:none;stroke:#121E24;stroke-width:0.7;stroke-linecap:round;stroke-linejoin:round;stroke-miterlimit:10;" x1="9.888" y1="9.669" x2="9.283" y2="11.341"/>
<line style="fill:none;stroke:#121E24;stroke-width:0.7;stroke-linecap:round;stroke-linejoin:round;stroke-miterlimit:10;" x1="6.71" y1="8.707" x2="5.949" y2="10.219"/>
<line style="fill:none;stroke:#121E24;stroke-width:0.7;stroke-linecap:round;stroke-linejoin:round;stroke-miterlimit:10;" x1="3.873" y1="10.917" x2="3.205" y2="12.12"/>
<line style="fill:none;stroke:#121E24;stroke-width:0.7;stroke-linecap:round;stroke-linejoin:round;stroke-miterlimit:10;" x1="7.305" y1="12.12" x2="6.71" y2="13.541"/>
<line style="fill:none;stroke:#121E24;stroke-width:0.7;stroke-linecap:round;stroke-linejoin:round;stroke-miterlimit:10;" x1="10.765" y1="13.036" x2="10.494" y2="14.388"/>
<line style="fill:none;stroke:#121E24;stroke-width:0.7;stroke-linecap:round;stroke-linejoin:round;stroke-miterlimit:10;" x1="4.373" y1="14.159" x2="3.754" y2="15.671"/>
<line style="fill:none;stroke:#121E24;stroke-width:0.7;stroke-linecap:round;stroke-linejoin:round;stroke-miterlimit:10;" x1="8.084" y1="15.671" x2="7.695" y2="17.229"/>
<line style="fill:none;stroke:#121E24;stroke-width:0.7;stroke-linecap:round;stroke-linejoin:round;stroke-miterlimit:10;" x1="9.888" y1="18.4" x2="9.688" y2="19.405"/>
<line style="fill:none;stroke:#121E24;stroke-width:0.7;stroke-linecap:round;stroke-linejoin:round;stroke-miterlimit:10;" x1="6.218" y1="17.802" x2="5.856" y2="19.062"/>
<line style="fill:none;stroke:#121E24;stroke-width:0.7;stroke-linecap:round;stroke-linejoin:round;stroke-miterlimit:10;" x1="18.782" y1="17.802" x2="19.144" y2="19.062"/>
<line style="fill:none;stroke:#121E24;stroke-width:0.7;stroke-linecap:round;stroke-linejoin:round;stroke-miterlimit:10;" x1="12.5" y1="16.29" x2="12.5" y2="17.893"/>
<line style="fill:none;stroke:#121E24;stroke-width:0.7;stroke-linecap:round;stroke-linejoin:round;stroke-miterlimit:10;" x1="15.112" y1="9.669" x2="15.717" y2="11.341"/>
<line style="fill:none;stroke:#121E24;stroke-width:0.7;stroke-linecap:round;stroke-linejoin:round;stroke-miterlimit:10;" x1="18.29" y1="8.707" x2="19.051" y2="10.219"/>
<line style="fill:none;stroke:#121E24;stroke-width:0.7;stroke-linecap:round;stroke-linejoin:round;stroke-miterlimit:10;" x1="21.127" y1="10.917" x2="21.795" y2="12.12"/>
<line style="fill:none;stroke:#121E24;stroke-width:0.7;stroke-linecap:round;stroke-linejoin:round;stroke-miterlimit:10;" x1="17.695" y1="12.12" x2="18.29" y2="13.541"/>
<line style="fill:none;stroke:#121E24;stroke-width:0.7;stroke-linecap:round;stroke-linejoin:round;stroke-miterlimit:10;" x1="14.235" y1="13.036" x2="14.506" y2="14.388"/>
<line style="fill:none;stroke:#121E24;stroke-width:0.7;stroke-linecap:round;stroke-linejoin:round;stroke-miterlimit:10;" x1="20.627" y1="14.159" x2="21.246" y2="15.671"/>
<line style="fill:none;stroke:#121E24;stroke-width:0.7;stroke-linecap:round;stroke-linejoin:round;stroke-miterlimit:10;" x1="16.916" y1="15.671" x2="17.305" y2="17.229"/>
<line style="fill:none;stroke:#121E24;stroke-width:0.7;stroke-linecap:round;stroke-linejoin:round;stroke-miterlimit:10;" x1="15.112" y1="18.4" x2="15.312" y2="19.405"/>
</svg>
