<?xml version="1.0" encoding="iso-8859-1"?>
<!-- Generator: Adobe Illustrator 18.1.1, SVG Export Plug-In . SVG Version: 6.00 Build 0)  -->
<svg version="1.1" id="Layer_1" xmlns="http://www.w3.org/2000/svg" xmlns:xlink="http://www.w3.org/1999/xlink" x="0px" y="0px"
	 viewBox="0 0 25 25" style="enable-background:new 0 0 25 25;" xml:space="preserve">
<g>
	<path style="fill:none;stroke:#121E24;stroke-width:0.7;stroke-linecap:round;stroke-linejoin:round;stroke-miterlimit:10;" d="
		M14.39,13.553l-0.837,0.837c-1.271,1.271-3.35,1.271-4.621,0L3.297,8.755C2.026,7.484,2.221,5.6,3.492,4.329l0.837-0.837
		C5.6,2.221,7.484,2.026,8.755,3.297l4.926,4.926"/>
	<path style="fill:none;stroke:#121E24;stroke-width:0.7;stroke-linecap:round;stroke-linejoin:round;stroke-miterlimit:10;" d="
		M10.61,11.447l0.837-0.837c1.271-1.271,3.35-1.271,4.621,0l5.636,5.636c1.271,1.271,1.076,3.155-0.195,4.426l-0.837,0.837
		c-1.271,1.271-3.155,1.466-4.426,0.195l-4.748-4.748"/>
	<path style="fill:none;stroke:#121E24;stroke-width:0.7;stroke-linecap:round;stroke-linejoin:round;stroke-miterlimit:10;" d="
		M12.774,12.222l-0.552,0.552c-0.837,0.837-2.263,0.782-3.169-0.124L5.038,8.634C4.132,7.728,4.076,6.303,4.914,5.465l0.552-0.552
		c0.837-0.837,2.263-0.782,3.169,0.124l3.306,3.306"/>
	<path style="fill:none;stroke:#121E24;stroke-width:0.7;stroke-linecap:round;stroke-linejoin:round;stroke-miterlimit:10;" d="
		M12.226,12.778l0.552-0.552c0.837-0.837,2.263-0.782,3.169,0.124l4.016,4.016c0.905,0.905,0.961,2.331,0.124,3.169l-0.552,0.552
		c-0.837,0.837-2.263,0.782-3.169-0.124l-3.128-3.128"/>
</g>
</svg>
