<?xml version="1.0" encoding="iso-8859-1"?>
<svg id="ludum-dare" version="1.1" xmlns="http://www.w3.org/2000/svg" xmlns:xlink="http://www.w3.org/1999/xlink" x="0px" y="0px"
     viewBox="0 0 25 25" xml:space="preserve">
    <g id="body">
        <path class="cd-stroke" d="M19.095,11.405H5.126c-0.804,0-1.434,0.772-1.434,1.758v8.779c0,0.041,0.006,0.06,0.016,0.069
            c0.083,1.385,1.225,2.489,2.63,2.489h11.543c1.459,0,2.646-1.187,2.646-2.646v-8.691C20.527,12.177,19.898,11.405,19.095,11.405z
             M17.882,23.5H6.339c-0.908,0-1.646-0.738-1.646-1.646c0-0.908,0.738-1.646,1.646-1.646h11.543c0.907,0,1.646,0.738,1.646,1.646
            C19.527,22.762,18.789,23.5,17.882,23.5z M19.527,19.799c-0.453-0.364-1.021-0.591-1.646-0.591H6.339
            c-0.625,0-1.193,0.227-1.646,0.591v-6.636c0-0.434,0.229-0.758,0.434-0.758h13.968c0.204,0,0.433,0.324,0.433,0.758V19.799z"/>
        <path class="cd-stroke" d="M16.706,12.639c-0.898,0-1.651,0.507-1.905,1.199H9.42c-0.254-0.692-1.007-1.199-1.905-1.199
            c-1.104,0-2.003,0.763-2.003,1.699c0,0.206,0.05,0.401,0.129,0.583v2.804c0,0.553,0.45,1.003,1.002,1.003h10.934
            c0.553,0,1.002-0.45,1.002-1.003v-2.803c0.08-0.183,0.13-0.378,0.13-0.585C18.709,13.401,17.811,12.639,16.706,12.639z
             M7.515,13.639c0.535,0,0.982,0.31,0.998,0.681c0,0.007-0.004,0.012-0.004,0.019s0.003,0.012,0.004,0.019
            c-0.016,0.37-0.463,0.68-0.998,0.68c-0.544,0-1.003-0.319-1.003-0.698S6.971,13.639,7.515,13.639z M17.577,17.729L6.641,17.726
            v-1.867c0.265,0.11,0.559,0.177,0.874,0.177c0.898,0,1.651-0.507,1.905-1.198h5.381c0.254,0.691,1.007,1.198,1.905,1.198
            c0.314,0,0.608-0.067,0.872-0.177L17.577,17.729z M16.706,15.036c-0.534,0-0.982-0.309-0.998-0.679c0-0.007,0.004-0.013,0.004-0.02
            s-0.004-0.013-0.004-0.02c0.016-0.37,0.464-0.68,0.998-0.68c0.544,0,1.003,0.32,1.003,0.699S17.25,15.036,16.706,15.036z"/>
    </g>
    <g id="stick">
        <circle style="fill:none;stroke:#000000 ;stroke-linecap:round;stroke-linejoin:round;stroke-miterlimit:10;" cx="12.11" cy="4.562" r="3.461"/>
        <path style="fill:#FFFFFF ;stroke:#000000 ;stroke-linecap:round;stroke-linejoin:round;stroke-miterlimit:10;" d="M12.11,8.023
            c-0.357,0-0.701-0.054-1.025-0.155v7.744c0,0.443,0.359,0.802,0.802,0.802h0.447c0.443,0,0.802-0.359,0.802-0.802V7.869
            C12.812,7.969,12.467,8.023,12.11,8.023z"/>
    </g>
</svg>
