<?xml version="1.0" encoding="iso-8859-1"?>
<!-- Generator: Adobe Illustrator 18.1.1, SVG Export Plug-In . SVG Version: 6.00 Build 0)  -->
<svg version="1.1" id="Layer_1" xmlns="http://www.w3.org/2000/svg" xmlns:xlink="http://www.w3.org/1999/xlink" x="0px" y="0px"
	 viewBox="0 0 25 25" style="enable-background:new 0 0 25 25;" xml:space="preserve">
<g>
	
		<polygon style="fill:none;stroke:#121E24;stroke-width:0.7;stroke-linecap:round;stroke-linejoin:round;stroke-miterlimit:10;" points="
		7.337,8.19 7.337,20.574 18.651,14.382 	"/>
	
		<polygon style="fill:none;stroke:#121E24;stroke-width:0.7;stroke-linecap:round;stroke-linejoin:round;stroke-miterlimit:10;" points="
		7.337,20.574 15.361,16.183 7.337,8.19 	"/>
	
		<polygon style="fill:none;stroke:#121E24;stroke-width:0.7;stroke-linecap:round;stroke-linejoin:round;stroke-miterlimit:10;" points="
		7.337,20.574 15.361,12.582 7.337,8.19 	"/>
	<path style="fill:none;stroke:#121E24;stroke-width:0.7;stroke-linecap:round;stroke-linejoin:round;stroke-miterlimit:10;" d="
		M24.37,5.681V20.78c0,1.295-1.05,2.345-2.345,2.345H2.975c-1.295,0-2.345-1.05-2.345-2.345V5.681H24.37z"/>
	
		<polyline style="fill:none;stroke:#121E24;stroke-width:0.7;stroke-linecap:round;stroke-linejoin:round;stroke-miterlimit:10;" points="
		7.337,5.681 7.337,3.623 9.085,1.875 15.935,1.875 17.694,3.634 17.694,5.681 	"/>
	
		<line style="fill:none;stroke:#121E24;stroke-width:0.7;stroke-linecap:round;stroke-linejoin:round;stroke-miterlimit:10;" x1="9.085" y1="1.875" x2="9.085" y2="5.681"/>
	
		<line style="fill:none;stroke:#121E24;stroke-width:0.7;stroke-linecap:round;stroke-linejoin:round;stroke-miterlimit:10;" x1="15.935" y1="1.875" x2="15.935" y2="5.681"/>
	
		<line style="fill:none;stroke:#121E24;stroke-width:0.7;stroke-linecap:round;stroke-linejoin:round;stroke-miterlimit:10;" x1="9.085" y1="3.582" x2="15.935" y2="3.582"/>
</g>
</svg>
